<?xml version="1.0" encoding="utf-8"?>
<!-- Generator: Adobe Illustrator 24.0.0, SVG Export Plug-In . SVG Version: 6.00 Build 0)  -->
<svg version="1.1" xmlns="http://www.w3.org/2000/svg" xmlns:xlink="http://www.w3.org/1999/xlink" x="0px" y="0px"
	 viewBox="0 0 256 256" enable-background="new 0 0 256 256" xml:space="preserve">
<g id="Layer_1">
</g>
<g id="Layer_2">
</g>
<g id="Layer_3">
</g>
<g id="Layer_4">
</g>
<g id="Layer_5">
</g>
<g id="Layer_6">
</g>
<g id="Layer_7">
</g>
<g id="Layer_8">
</g>
<g id="Layer_9">
</g>
<g id="Layer_10">
</g>
<g id="Layer_11">
</g>
<g id="Layer_12">
</g>
<g id="Layer_13">
</g>
<g id="Layer_14">
</g>
<g id="Layer_15">
</g>
<g id="Layer_16">
</g>
<g id="Layer_17">
</g>
<g id="Layer_18">
</g>
<g id="Layer_19">
</g>
<g id="Layer_20">
</g>
<g id="Layer_21">
</g>
<g id="Layer_22">
</g>
<g id="Layer_23">
</g>
<g id="Layer_24">
</g>
<g id="Layer_25">
</g>
<g id="Layer_26">
</g>
<g id="Layer_27">
</g>
<g id="Layer_28">
</g>
<g id="Layer_29">
</g>
<g id="Layer_30">
</g>
<g id="Layer_31">
</g>
<g id="Layer_32">
</g>
<g id="Layer_33">
</g>
<g id="Layer_34">
</g>
<g id="Layer_35">
</g>
<g id="Layer_36">
</g>
<g id="Layer_37">
</g>
<g id="Layer_38">
</g>
<g id="Layer_39">
</g>
<g id="Layer_40">
</g>
<g id="Layer_41">
</g>
<g id="Layer_42">
</g>
<g id="Layer_43">
</g>
<g id="Layer_44">
</g>
<g id="Layer_45">
</g>
<g id="Layer_46">
</g>
<g id="Layer_47">
</g>
<g id="Layer_48">
</g>
<g id="Layer_49">
</g>
<g id="Layer_50">
</g>
<g id="Layer_51">
</g>
<g id="Layer_52">
</g>
<g id="Layer_53">
</g>
<g id="Layer_54">
</g>
<g id="Layer_55">
</g>
<g id="Layer_56">
</g>
<g id="Layer_57">
</g>
<g id="Layer_58">
</g>
<g id="Layer_59">
	<g>
		<g>
			<g>
				<path fill="#EDF4FC" d="M148.639,146.671c-2.065,0-3.739-1.674-3.739-3.739V87.393H9.46c-3.828,0-6.96,3.132-6.96,6.96v112.108
					c0,3.828,3.132,6.96,6.96,6.96h185.072c3.828,0,6.96-3.132,6.96-6.96v-59.79H148.639z"/>
			</g>
		</g>
		<g>
			<g>
				<path fill="#70D6F9" d="M85.679,149.548l-1.504,1.041c-0.653,0.452-1.385,0.74-2.139,0.875c0.097,0.098,0.183,0.195,0.281,0.292
					c24.539,24.539,15.465,47.358,4.319,61.665h20.54C122.157,183.003,101.948,161.206,85.679,149.548z"/>
			</g>
		</g>
		<g>
			<g>
				<path fill="#5290DB" d="M66.254,132.637l-0.063-0.034l0,0L66.254,132.637z M82.316,151.756
					c-0.098-0.098-0.189-0.194-0.285-0.292c-1.132,0.201-2.317,0.049-3.378-0.482l-13.074-6.537l-0.692-0.346l-9.323,9.924
					l11.34,6.379c3.066,1.724,3.704,5.861,1.318,8.431l-14.125,15.211c-2.042,2.198-5.479,2.326-7.678,0.284
					c-2.198-2.042-2.326-5.479-0.284-7.678l9.434-10.159l-7.863-4.423L24.539,184.27c-2.17,2.081-5.61,1.998-7.681-0.163
					c-2.076-2.166-2.003-5.605,0.163-7.681l25.974-24.892l-0.099,0.105l11.981-12.754l-6.761-3.606l-12.394,10.623
					c-2.281,1.955-5.71,1.685-7.66-0.589c-1.952-2.278-1.689-5.707,0.589-7.66l15.211-13.038c1.7-1.456,4.117-1.722,6.092-0.668
					l16.234,8.658l3.846,1.923c-0.974-2.252-1.687-4.458-2.168-6.615c-2.187-1.461-3.628-3.951-3.628-6.779
					c0-2.753,1.369-5.181,3.458-6.656c2.293-11.609,10.482-20.987,17.402-27.083H9.46c-3.828,0-6.96,3.132-6.96,6.96v112.108
					c0,3.828,3.132,6.96,6.96,6.96h77.175C97.782,199.114,106.855,176.295,82.316,151.756z"/>
			</g>
		</g>
		<g>
			<g>
				<path fill="#F98FA6" d="M40.415,99.005H22.094c-3.359,0-6.107,2.748-6.107,6.107c0,3.359,2.748,6.107,6.107,6.107h18.321
					c3.359,0,6.107-2.748,6.107-6.107C46.522,101.753,43.774,99.005,40.415,99.005z"/>
			</g>
		</g>
		<g>
			<g>
				<path d="M201.491,144.746c-1.381,0-2.5,1.119-2.5,2.5v59.215c0,2.459-2.001,4.46-4.46,4.46H9.46c-2.459,0-4.46-2.001-4.46-4.46
					V94.354c0-2.459,2.001-4.46,4.46-4.46h134.697c1.381,0,2.5-1.119,2.5-2.5s-1.119-2.5-2.5-2.5H9.46
					c-5.216,0-9.46,4.244-9.46,9.46v112.107c0,5.216,4.244,9.46,9.46,9.46h185.071c5.216,0,9.46-4.244,9.46-9.46v-59.215
					C203.991,145.865,202.872,144.746,201.491,144.746z"/>
			</g>
		</g>
		<g>
			<g>
				<path fill="#F5C84C" d="M72.39,112.984c-4.5,0-8.149,3.648-8.149,8.149c0,4.5,3.648,8.149,8.149,8.149
					c4.5,0,8.149-3.648,8.149-8.149C80.539,116.633,76.89,112.984,72.39,112.984z"/>
			</g>
		</g>
		<g>
			<g>
				<path fill="#F5C84C" d="M66.904,160.402l-11.34-6.378l12.093-12.873c2.475-2.633,1.595-6.914-1.403-8.513l-16.298-8.692
					c-1.975-1.053-4.392-0.788-6.092,0.668l-15.211,13.038c-2.278,1.953-2.542,5.382-0.589,7.66c1.95,2.274,5.379,2.545,7.66,0.589
					l12.393-10.623l6.761,3.606l-11.981,12.754c-2.416,2.572-1.774,6.728,1.296,8.454l11.375,6.399l-9.434,10.159
					c-2.041,2.199-1.914,5.636,0.284,7.678c2.199,2.042,5.636,1.914,7.678-0.284l14.125-15.211
					C70.608,166.263,69.97,162.126,66.904,160.402z"/>
			</g>
		</g>
		<g>
			<g>
				<path fill="#F5C84C" d="M44.194,160.093c-3.07-1.726-3.712-5.883-1.296-8.454l0.099-0.105l-25.974,24.892
					c-2.166,2.076-2.239,5.515-0.163,7.681c2.071,2.162,5.511,2.244,7.681,0.163l23.167-22.201L44.194,160.093z"/>
			</g>
		</g>
		<g>
			<g>
				<path fill="#F5C84C" d="M99.673,133.252c-1.707-2.467-5.091-3.082-7.559-1.374l-11.48,7.948l-14.443-7.222l0.064,0.034
					c2.997,1.599,3.878,5.88,1.403,8.513l-2.77,2.949l13.766,6.883c1.77,0.886,3.887,0.739,5.522-0.393l14.125-9.779
					C100.766,139.103,101.381,135.719,99.673,133.252z"/>
			</g>
		</g>
		<g>
			<g>
				<g>
					<g>
						<path d="M72.39,110.484c-5.871,0-10.648,4.777-10.648,10.648c0,5.872,4.777,10.649,10.648,10.649
							c5.872,0,10.649-4.777,10.649-10.649C83.039,115.262,78.262,110.484,72.39,110.484z M72.39,126.782
							c-3.114,0-5.648-2.534-5.648-5.649c0-3.114,2.534-5.648,5.648-5.648c3.115,0,5.649,2.534,5.649,5.648
							C78.039,124.248,75.505,126.782,72.39,126.782z"/>
					</g>
				</g>
			</g>
		</g>
		<g>
			<g>
				<g>
					<g>
						<path d="M72.077,163.911c-0.378-2.416-1.816-4.49-3.947-5.688l-8.559-4.813l9.907-10.546c1.682-1.789,2.414-4.227,2.01-6.688
							c-0.404-2.457-1.921-4.604-4.057-5.744l-16.299-8.692c-2.902-1.549-6.396-1.166-8.895,0.976l-15.213,13.039
							c-3.319,2.847-3.705,7.864-0.858,11.186s7.864,3.705,11.185,0.86l11.097-9.512l2.372,1.265l-9.745,10.374
							c-1.68,1.789-2.43,4.207-2.058,6.635c0.372,2.427,1.813,4.509,3.95,5.71l8.611,4.844l-7.275,7.835
							c-1.441,1.552-2.192,3.573-2.114,5.691c0.078,2.117,0.977,4.077,2.529,5.52c1.524,1.415,3.461,2.115,5.394,2.115
							c2.131,0,4.256-0.851,5.817-2.531l14.124-15.211C71.717,168.742,72.455,166.328,72.077,163.911z M66.39,167.132
							l-14.124,15.211c-1.101,1.183-2.959,1.255-4.145,0.154c-0.574-0.533-0.906-1.258-0.936-2.041
							c-0.028-0.782,0.249-1.529,0.782-2.104l9.434-10.16c0.521-0.562,0.756-1.33,0.638-2.087s-0.576-1.418-1.244-1.793
							l-11.376-6.399c-0.79-0.443-1.321-1.213-1.459-2.11s0.139-1.792,0.76-2.452l11.981-12.755
							c0.533-0.567,0.771-1.351,0.645-2.118c-0.127-0.769-0.604-1.434-1.29-1.8l-6.761-3.605c-0.37-0.197-0.774-0.294-1.177-0.294
							c-0.584,0-1.164,0.205-1.627,0.602l-12.394,10.623c-1.226,1.052-3.081,0.912-4.135-0.317c-1.053-1.228-0.91-3.084,0.317-4.136
							l15.212-13.038c0.924-0.793,2.216-0.935,3.288-0.36l16.298,8.692c0.771,0.411,1.323,1.213,1.477,2.145
							c0.088,0.535,0.112,1.566-0.72,2.45l-12.093,12.873c-0.526,0.561-0.766,1.331-0.648,2.091c0.116,0.76,0.575,1.424,1.245,1.8
							l11.34,6.378c0.787,0.443,1.318,1.21,1.458,2.103C67.276,165.577,67.004,166.47,66.39,167.132z"/>
					</g>
				</g>
			</g>
		</g>
		<g>
			<g>
				<path d="M48.715,161.102c-0.955-0.998-2.538-1.031-3.534-0.075l-22.372,21.438c-0.565,0.543-1.275,0.841-2.092,0.814
					c-0.783-0.018-1.512-0.338-2.054-0.902c-0.542-0.565-0.831-1.309-0.814-2.091c0.017-0.783,0.338-1.513,0.903-2.056
					l25.723-24.651c0.997-0.955,1.031-2.538,0.075-3.534c-0.957-0.999-2.538-1.032-3.534-0.075l-25.723,24.65
					c-1.53,1.467-2.397,3.44-2.443,5.559c-0.045,2.119,0.737,4.128,2.204,5.657c1.464,1.528,3.437,2.396,5.553,2.442
					c0.061,0.001,0.12,0.002,0.18,0.002c2.055,0,3.996-0.779,5.482-2.206l22.371-21.438
					C49.637,163.681,49.671,162.099,48.715,161.102z"/>
			</g>
		</g>
		<g>
			<g>
				<path d="M101.729,131.829c-1.206-1.742-3.018-2.91-5.103-3.289c-2.083-0.379-4.193,0.077-5.935,1.282l-10.264,7.104
					l-12.843-6.422c-1.237-0.618-2.736-0.117-3.354,1.118c-0.617,1.235-0.117,2.736,1.118,3.354l14.167,7.084
					c0.816,0.408,1.79,0.339,2.541-0.181l11.48-7.947c0.644-0.446,1.423-0.615,2.194-0.475c0.771,0.14,1.44,0.572,1.886,1.216
					c0.446,0.645,0.614,1.423,0.475,2.193c-0.141,0.771-0.572,1.441-1.216,1.887l-14.124,9.778
					c-0.881,0.611-2.025,0.692-2.981,0.212l-13.073-6.536c-1.236-0.618-2.736-0.117-3.354,1.118
					c-0.617,1.235-0.116,2.737,1.118,3.354l13.073,6.535c1.121,0.562,2.336,0.839,3.547,0.839c1.587,0,3.166-0.476,4.517-1.411
					l14.124-9.778c1.742-1.206,2.91-3.019,3.289-5.104C103.39,135.679,102.935,133.571,101.729,131.829z"/>
			</g>
		</g>
		<g>
			<g>
				<path d="M133.868,133.419h-13.836c-1.381,0-2.5,1.119-2.5,2.5s1.119,2.5,2.5,2.5h13.836c1.381,0,2.5-1.119,2.5-2.5
					S135.249,133.419,133.868,133.419z"/>
			</g>
		</g>
		<g>
			<g>
				<path d="M144.158,102.629h-24.126c-1.381,0-2.5,1.119-2.5,2.5s1.119,2.5,2.5,2.5h24.126c1.381,0,2.5-1.119,2.5-2.5
					S145.539,102.629,144.158,102.629z"/>
			</g>
		</g>
		<g>
			<g>
				<path d="M133.868,144.171h-13.836c-1.381,0-2.5,1.119-2.5,2.5s1.119,2.5,2.5,2.5h13.836c1.381,0,2.5-1.119,2.5-2.5
					S135.249,144.171,133.868,144.171z"/>
			</g>
		</g>
		<g>
			<g>
				<path d="M133.868,154.923h-13.836c-1.381,0-2.5,1.119-2.5,2.5s1.119,2.5,2.5,2.5h13.836c1.381,0,2.5-1.119,2.5-2.5
					S135.249,154.923,133.868,154.923z"/>
			</g>
		</g>
		<g>
			<g>
				<path d="M133.868,165.675h-13.836c-1.381,0-2.5,1.119-2.5,2.5s1.119,2.5,2.5,2.5h13.836c1.381,0,2.5-1.119,2.5-2.5
					S135.249,165.675,133.868,165.675z"/>
			</g>
		</g>
		<g>
			<g>
				<path d="M182.22,154.923h-36.938c-1.381,0-2.5,1.119-2.5,2.5s1.119,2.5,2.5,2.5h36.938c1.381,0,2.5-1.119,2.5-2.5
					S183.601,154.923,182.22,154.923z"/>
			</g>
		</g>
		<g>
			<g>
				<path d="M182.22,165.675h-36.938c-1.381,0-2.5,1.119-2.5,2.5s1.119,2.5,2.5,2.5h36.938c1.381,0,2.5-1.119,2.5-2.5
					S183.601,165.675,182.22,165.675z"/>
			</g>
		</g>
		<g>
			<g>
				<path d="M87.969,148.119c-1.113-0.813-2.679-0.573-3.494,0.541s-0.573,2.679,0.541,3.494
					c16.456,12.043,33.321,32.15,20.213,59.553c-0.596,1.246-0.069,2.738,1.176,3.334c0.349,0.167,0.716,0.246,1.077,0.246
					c0.933,0,1.828-0.524,2.257-1.422C121.12,190.071,113.39,166.723,87.969,148.119z"/>
			</g>
		</g>
		<g>
			<g>
				<g>
					<path d="M86.367,86.249c-0.924-1.026-2.505-1.109-3.531-0.188c-6.603,5.938-15,15.534-17.509,27.535
						c-0.282,1.352,0.584,2.677,1.936,2.959c0.173,0.036,0.345,0.054,0.515,0.054c1.158,0,2.197-0.811,2.444-1.989
						c2.231-10.678,9.909-19.401,15.958-24.84C87.206,88.856,87.29,87.276,86.367,86.249z"/>
				</g>
			</g>
			<g>
				<g>
					<path d="M72.176,133.169c-0.761-1.813-1.361-3.643-1.783-5.438c-0.315-1.344-1.662-2.173-3.006-1.861
						c-1.344,0.316-2.178,1.662-1.861,3.006c0.485,2.064,1.172,4.16,2.041,6.229c0.401,0.957,1.329,1.533,2.306,1.533
						c0.322,0,0.65-0.063,0.967-0.196C72.112,135.907,72.711,134.441,72.176,133.169z"/>
				</g>
			</g>
			<g>
				<g>
					<path d="M84.084,149.988c-0.977-0.977-2.559-0.977-3.535,0s-0.977,2.559,0,3.535c22.816,22.817,15.051,44.046,4.519,57.836
						c-0.838,1.098-0.627,2.666,0.47,3.505c0.453,0.346,0.986,0.513,1.516,0.513c0.753,0,1.497-0.338,1.989-0.982
						c7.09-9.284,10.903-18.791,11.333-28.255C100.948,173.534,95.467,161.371,84.084,149.988z"/>
				</g>
			</g>
		</g>
		<g>
			<g>
				<g>
					<g>
						<path d="M40.415,96.505H22.094c-4.746,0-8.607,3.861-8.607,8.607s3.861,8.607,8.607,8.607h18.321
							c4.746,0,8.607-3.861,8.607-8.607S45.161,96.505,40.415,96.505z M40.415,108.72H22.094c-1.989,0-3.607-1.618-3.607-3.607
							s1.618-3.607,3.607-3.607h18.321c1.989,0,3.607,1.618,3.607,3.607S42.404,108.72,40.415,108.72z"/>
					</g>
				</g>
			</g>
		</g>
		<g>
			<g>
				<path fill="#EDF4FC" d="M237.8,62.882h-91.545c-0.479,0-0.937-0.098-1.354-0.272v80.322c0,2.065,1.674,3.739,3.739,3.739h86.776
					c2.065,0,3.739-1.674,3.739-3.739V62.61C238.737,62.785,238.28,62.882,237.8,62.882z"/>
			</g>
		</g>
		<g>
			<g>
				<path fill="#FC657E" d="M237.8,30.714h-91.545c-1.941,0-3.53,1.588-3.53,3.53v25.109c0,1.941,1.588,3.53,3.53,3.53H237.8
					c1.941,0,3.53-1.588,3.53-3.53V34.244C241.33,32.303,239.741,30.714,237.8,30.714z"/>
			</g>
		</g>
		<g>
			<g>
				<path fill="#F98FA6" d="M208.648,41.156h-33.242c-0.866,0-1.568,0.702-1.568,1.568v8.15c0,0.866,0.702,1.567,1.568,1.567h33.242
					c0.866,0,1.568-0.702,1.568-1.567v-8.15C210.216,41.857,209.514,41.156,208.648,41.156z"/>
			</g>
		</g>
		<g>
			<g>
				<path d="M239.154,60.782c-1.381,0-2.5,1.119-2.5,2.5v79.649c0,0.684-0.556,1.239-1.238,1.239H148.64
					c-0.684,0-1.239-0.556-1.239-1.239V63.335c0-1.381-1.119-2.5-2.5-2.5s-2.5,1.119-2.5,2.5v79.597c0,3.44,2.799,6.239,6.239,6.239
					h86.776c3.439,0,6.238-2.799,6.238-6.239V63.282C241.654,61.901,240.535,60.782,239.154,60.782z"/>
			</g>
		</g>
		<g>
			<g>
				<g>
					<g>
						<path d="M237.8,28.215h-91.545c-3.324,0-6.029,2.705-6.029,6.029v25.108c0,3.325,2.705,6.03,6.029,6.03H237.8
							c3.325,0,6.03-2.705,6.03-6.03V34.244C243.83,30.92,241.125,28.215,237.8,28.215z M238.83,59.353
							c0,0.559-0.472,1.03-1.03,1.03h-91.545c-0.558,0-1.029-0.472-1.029-1.03V34.244c0-0.558,0.472-1.029,1.029-1.029H237.8
							c0.559,0,1.03,0.472,1.03,1.029V59.353z"/>
					</g>
				</g>
			</g>
		</g>
		<g>
			<g>
				<path d="M153.344,20.263c-1.381,0-2.5,1.119-2.5,2.5v16.235c0,1.381,1.119,2.5,2.5,2.5s2.5-1.119,2.5-2.5V22.763
					C155.844,21.382,154.725,20.263,153.344,20.263z"/>
			</g>
		</g>
		<g>
			<g>
				<path d="M162.387,20.263c-1.381,0-2.5,1.119-2.5,2.5v16.235c0,1.381,1.119,2.5,2.5,2.5s2.5-1.119,2.5-2.5V22.763
					C164.887,21.382,163.768,20.263,162.387,20.263z"/>
			</g>
		</g>
		<g>
			<g>
				<path d="M221.668,20.263c-1.381,0-2.5,1.119-2.5,2.5v16.235c0,1.381,1.119,2.5,2.5,2.5s2.5-1.119,2.5-2.5V22.763
					C224.168,21.382,223.049,20.263,221.668,20.263z"/>
			</g>
		</g>
		<g>
			<g>
				<path d="M230.711,20.263c-1.381,0-2.5,1.119-2.5,2.5v16.235c0,1.381,1.119,2.5,2.5,2.5s2.5-1.119,2.5-2.5V22.763
					C233.211,21.382,232.092,20.263,230.711,20.263z"/>
			</g>
		</g>
		<g>
			<g>
				<g>
					<g>
						<path d="M208.648,38.655h-33.242c-2.243,0-4.067,1.824-4.067,4.067v8.15c0,2.243,1.824,4.067,4.067,4.067h33.242
							c2.243,0,4.067-1.824,4.067-4.067v-8.15C212.716,40.479,210.892,38.655,208.648,38.655z M207.716,49.94h-31.377v-6.285h31.377
							V49.94z"/>
					</g>
				</g>
			</g>
		</g>
		<g>
			<g>
				<path fill="#F5C84C" d="M236.227,178.117c-4.5-0.8-8-4.3-8.9-8.7c0-0.2-0.4-0.2-0.4,0c-0.9,4.4-4.4,7.9-8.9,8.7
					c-0.2,0-0.2,0.3,0,0.4c4.5,0.8,8,4.3,8.9,8.7c0,0.2,0.4,0.2,0.4,0c0.9-4.4,4.4-7.9,8.9-8.7
					C236.427,178.417,236.427,178.117,236.227,178.117z"/>
			</g>
		</g>
		<g>
			<g>
				<path fill="#FC657E" d="M146.894,229.175c-3.192-0.568-5.675-3.05-6.313-6.172c0-0.142-0.284-0.142-0.284,0
					c-0.638,3.121-3.121,5.604-6.313,6.172c-0.142,0-0.142,0.213,0,0.284c3.192,0.567,5.675,3.05,6.313,6.171
					c0,0.142,0.284,0.142,0.284,0c0.638-3.121,3.121-5.604,6.313-6.171C147.035,229.388,147.035,229.175,146.894,229.175z"/>
			</g>
		</g>
		<g>
			<g>
				<path fill="#70D6F9" d="M117.514,49.442h-2.3v-2.3c0-1.8-1.4-3.2-3.2-3.2s-3.2,1.5-3.2,3.2v2.3h-2.3c-1.8,0-3.2,1.4-3.2,3.2
					s1.5,3.2,3.2,3.2h2.3v2.3c0,1.8,1.4,3.2,3.2,3.2s3.2-1.5,3.2-3.2v-2.3h2.3c1.8,0,3.2-1.4,3.2-3.2S119.214,49.442,117.514,49.442
					z"/>
			</g>
		</g>
		<g>
			<g>
				<path fill="#87D147" d="M252.6,157.242c-1.878,0-3.4,1.522-3.4,3.4c0,1.878,1.522,3.4,3.4,3.4s3.4-1.522,3.4-3.4
					C256,158.764,254.478,157.242,252.6,157.242z"/>
			</g>
		</g>
		<g>
			<g>
				<path fill="#F5C84C" d="M82.914,62.917c-1.878,0-3.4,1.522-3.4,3.4c0,1.878,1.522,3.4,3.4,3.4c1.878,0,3.4-1.522,3.4-3.4
					C86.314,64.439,84.792,62.917,82.914,62.917z"/>
			</g>
		</g>
		<g>
			<g>
				<g>
					<g>
						<g>
							<path d="M186.03,75.969h-7.521c-2.368,0-4.294,1.926-4.294,4.293v7.521c0,2.368,1.926,4.294,4.294,4.294h7.521
								c2.367,0,4.293-1.926,4.293-4.294v-7.521C190.323,77.895,188.397,75.969,186.03,75.969z M185.323,87.077h-6.108v-6.108h6.108
								V87.077z"/>
						</g>
					</g>
				</g>
			</g>
			<g>
				<g>
					<g>
						<g>
							<path d="M206.127,75.969h-7.522c-2.367,0-4.293,1.926-4.293,4.293v7.521c0,2.368,1.926,4.294,4.293,4.294h7.522
								c2.367,0,4.293-1.926,4.293-4.294v-7.521C210.42,77.895,208.494,75.969,206.127,75.969z M205.42,87.077h-6.108v-6.108h6.108
								V87.077z"/>
						</g>
					</g>
				</g>
			</g>
			<g>
				<g>
					<g>
						<g>
							<path d="M226.223,75.969h-7.521c-2.367,0-4.293,1.926-4.293,4.293v7.521c0,2.368,1.926,4.294,4.293,4.294h7.521
								c2.368,0,4.294-1.926,4.294-4.294v-7.521C230.517,77.895,228.591,75.969,226.223,75.969z M225.517,87.077h-6.108v-6.108
								h6.108V87.077z"/>
						</g>
					</g>
				</g>
			</g>
			<g>
				<g>
					<g>
						<g>
							<path d="M165.934,75.969h-7.521c-2.367,0-4.293,1.926-4.293,4.293v7.521c0,2.368,1.926,4.294,4.293,4.294h7.521
								c2.368,0,4.294-1.926,4.294-4.294v-7.521C170.228,77.895,168.302,75.969,165.934,75.969z M165.228,87.077h-6.108v-6.108
								h6.108V87.077z"/>
						</g>
					</g>
				</g>
			</g>
		</g>
		<g>
			<g>
				<g>
					<g>
						<g>
							<path d="M186.03,95.969h-7.521c-2.368,0-4.294,1.926-4.294,4.293v7.521c0,2.368,1.926,4.294,4.294,4.294h7.521
								c2.367,0,4.293-1.926,4.293-4.294v-7.521C190.323,97.895,188.397,95.969,186.03,95.969z M185.323,107.077h-6.108v-6.108
								h6.108V107.077z"/>
						</g>
					</g>
				</g>
			</g>
			<g>
				<g>
					<g>
						<g>
							<path d="M206.127,95.969h-7.522c-2.367,0-4.293,1.926-4.293,4.293v7.521c0,2.368,1.926,4.294,4.293,4.294h7.522
								c2.367,0,4.293-1.926,4.293-4.294v-7.521C210.42,97.895,208.494,95.969,206.127,95.969z M205.42,107.077h-6.108v-6.108h6.108
								V107.077z"/>
						</g>
					</g>
				</g>
			</g>
			<g>
				<g>
					<g>
						<g>
							<path d="M226.223,95.969h-7.521c-2.367,0-4.293,1.926-4.293,4.293v7.521c0,2.368,1.926,4.294,4.293,4.294h7.521
								c2.368,0,4.294-1.926,4.294-4.294v-7.521C230.517,97.895,228.591,95.969,226.223,95.969z M225.517,107.077h-6.108v-6.108
								h6.108V107.077z"/>
						</g>
					</g>
				</g>
			</g>
			<g>
				<g>
					<g>
						<g>
							<path d="M165.934,95.969h-7.521c-2.367,0-4.293,1.926-4.293,4.293v7.521c0,2.368,1.926,4.294,4.293,4.294h7.521
								c2.368,0,4.294-1.926,4.294-4.294v-7.521C170.228,97.895,168.302,95.969,165.934,95.969z M165.228,107.077h-6.108v-6.108
								h6.108V107.077z"/>
						</g>
					</g>
				</g>
			</g>
		</g>
		<g>
			<g>
				<g>
					<g>
						<g>
							<path d="M186.03,115.969h-7.521c-2.368,0-4.294,1.926-4.294,4.293v7.521c0,2.368,1.926,4.294,4.294,4.294h7.521
								c2.367,0,4.293-1.926,4.293-4.294v-7.521C190.323,117.895,188.397,115.969,186.03,115.969z M185.323,127.077h-6.108v-6.108
								h6.108V127.077z"/>
						</g>
					</g>
				</g>
			</g>
			<g>
				<g>
					<g>
						<g>
							<path d="M206.127,115.969h-7.522c-2.367,0-4.293,1.926-4.293,4.293v7.521c0,2.368,1.926,4.294,4.293,4.294h7.522
								c2.367,0,4.293-1.926,4.293-4.294v-7.521C210.42,117.895,208.494,115.969,206.127,115.969z M205.42,127.077h-6.108v-6.108
								h6.108V127.077z"/>
						</g>
					</g>
				</g>
			</g>
			<g>
				<g>
					<g>
						<g>
							<path d="M226.223,115.969h-7.521c-2.367,0-4.293,1.926-4.293,4.293v7.521c0,2.368,1.926,4.294,4.293,4.294h7.521
								c2.368,0,4.294-1.926,4.294-4.294v-7.521C230.517,117.895,228.591,115.969,226.223,115.969z M225.517,127.077h-6.108v-6.108
								h6.108V127.077z"/>
						</g>
					</g>
				</g>
			</g>
			<g>
				<g>
					<g>
						<g>
							<path d="M165.934,115.969h-7.521c-2.367,0-4.293,1.926-4.293,4.293v7.521c0,2.368,1.926,4.294,4.293,4.294h7.521
								c2.368,0,4.294-1.926,4.294-4.294v-7.521C170.228,117.895,168.302,115.969,165.934,115.969z M165.228,127.077h-6.108v-6.108
								h6.108V127.077z"/>
						</g>
					</g>
				</g>
			</g>
		</g>
	</g>
</g>
<g id="Layer_60">
</g>
<g id="Layer_61">
</g>
<g id="Layer_62">
</g>
<g id="Layer_63">
</g>
<g id="Layer_64">
</g>
<g id="Layer_65">
</g>
<g id="Layer_66">
</g>
<g id="Layer_67">
</g>
<g id="Layer_68">
</g>
<g id="Layer_69">
</g>
<g id="Layer_70">
</g>
<g id="Layer_71">
</g>
<g id="Layer_72">
</g>
<g id="Layer_73">
</g>
<g id="Layer_74">
</g>
<g id="Layer_75">
</g>
</svg>
